<?xml version="1.0" encoding="UTF-8" standalone="no"?>
<svg
   xmlns:dc="http://purl.org/dc/elements/1.1/"
   xmlns:cc="http://creativecommons.org/ns#"
   xmlns:rdf="http://www.w3.org/1999/02/22-rdf-syntax-ns#"
   xmlns:svg="http://www.w3.org/2000/svg"
   xmlns="http://www.w3.org/2000/svg"
   xmlns:sodipodi="http://sodipodi.sourceforge.net/DTD/sodipodi-0.dtd"
   xmlns:inkscape="http://www.inkscape.org/namespaces/inkscape"
   version="1.1"
   id="svg2"
   xml:space="preserve"
   width="706.53333"
   height="321.94666"
   viewBox="0 0 706.53333 321.94666"
   sodipodi:docname="osepi-logo-3_lines-cmyk-2018_06_18.eps"><metadata
     id="metadata8"><rdf:RDF><cc:Work
         rdf:about=""><dc:format>image/svg+xml</dc:format><dc:type
           rdf:resource="http://purl.org/dc/dcmitype/StillImage" /></cc:Work></rdf:RDF></metadata><defs
     id="defs6" /><sodipodi:namedview
     pagecolor="#ffffff"
     bordercolor="#666666"
     borderopacity="1"
     objecttolerance="10"
     gridtolerance="10"
     guidetolerance="10"
     inkscape:pageopacity="0"
     inkscape:pageshadow="2"
     inkscape:window-width="640"
     inkscape:window-height="480"
     id="namedview4" /><g
     id="g10"
     inkscape:groupmode="layer"
     inkscape:label="ink_ext_XXXXXX"
     transform="matrix(1.3333333,0,0,-1.3333333,0,321.94667)"><g
       id="g12"
       transform="scale(0.1)"><path
         d="m 182.898,2341.84 c -57.019,0 -88.4253,-57.54 -88.4253,-162.04 0,-104.49 31.4063,-162.03 88.4253,-162.03 57.032,0 88.442,57.54 88.442,162.03 0,104.5 -31.41,162.04 -88.442,162.04 z m 0,-396.78 C 94.4805,1945.06 0,2006.73 0,2179.8 c 0,173.08 94.4805,234.75 182.898,234.75 88.43,0 182.911,-61.67 182.911,-234.75 0,-173.07 -94.481,-234.74 -182.911,-234.74"
         style="fill:#231f20;fill-opacity:1;fill-rule:nonzero;stroke:none"
         id="path14" /><path
         d="m 538.621,2198.89 h 25.727 c 47.437,0 68.59,21.15 68.59,68.59 0,46.99 -21.153,67.95 -68.59,67.95 h -25.727 z m 0,-247.43 h -91.91 v 456.69 h 132.996 c 92.246,0 145.145,-51.27 145.145,-140.67 0,-89.8 -52.899,-141.31 -145.145,-141.31 h -41.086 v -174.71"
         style="fill:#231f20;fill-opacity:1;fill-rule:nonzero;stroke:none"
         id="path16" /><path
         d="M 1058.94,1951.46 H 807.676 v 456.69 h 244.864 v -75.28 H 899.59 v -109.02 h 144.63 v -75.29 H 899.59 v -121.82 h 159.35 v -75.28"
         style="fill:#231f20;fill-opacity:1;fill-rule:nonzero;stroke:none"
         id="path18" /><path
         d="m 1488.3,1951.46 h -106.22 l -140.8,331.59 v -331.59 h -84.23 v 456.69 h 105.58 l 141.44,-334.09 v 334.09 h 84.23 v -456.69"
         style="fill:#231f20;fill-opacity:1;fill-rule:nonzero;stroke:none"
         id="path20" /><path
         d="m 1877.56,1945.06 c -46.49,0 -81.59,6.91 -104.33,20.55 l -2.61,1.57 5.19,84.47 7.17,-4.59 c 9.79,-6.27 45.39,-26.72 92.01,-26.72 30.38,0 62.84,15.66 62.84,59.63 0,27.97 -14.58,40.94 -55.64,63.46 l -41.61,23.04 c -50.83,27.99 -75.54,67.73 -75.54,121.49 0,63 45.08,126.59 145.79,126.59 43.31,0 75.12,-10.01 90.41,-14.82 l 8.24,-2.52 -4.44,-79.27 -11.14,4.31 c -19.34,7.59 -43.41,17.03 -77.31,17.03 -35.74,0 -57.08,-17.76 -57.08,-47.48 0,-30.52 20.77,-42.24 44.83,-55.8 l 47.97,-26.87 c 51.88,-29.11 79.99,-57.61 79.99,-124.68 0,-85.99 -59.29,-139.39 -154.74,-139.39"
         style="fill:#231f20;fill-opacity:1;fill-rule:nonzero;stroke:none"
         id="path22" /><path
         d="m 2269.86,2341.84 c -57.02,0 -88.42,-57.54 -88.42,-162.04 0,-104.49 31.4,-162.03 88.42,-162.03 57.03,0 88.44,57.54 88.44,162.03 0,104.5 -31.41,162.04 -88.44,162.04 z m 0,-396.78 c -88.41,0 -182.9,61.67 -182.9,234.74 0,173.08 94.49,234.75 182.9,234.75 88.43,0 182.91,-61.67 182.91,-234.75 0,-173.07 -94.48,-234.74 -182.91,-234.74"
         style="fill:#231f20;fill-opacity:1;fill-rule:nonzero;stroke:none"
         id="path24" /><path
         d="m 2717.22,1945.06 c -129.8,0 -210.43,89.95 -210.43,234.74 0,142.61 81.59,234.75 207.87,234.75 45.15,0 82.65,-11.84 100.98,-18.9 l 3.42,-1.31 -5.16,-84.81 -12.22,6.18 c -16.18,8.36 -40.65,21.01 -76.79,21.01 -36.39,0 -121.06,-15.29 -121.06,-156.92 0,-141.61 84.67,-156.9 121.06,-156.9 34.35,0 61.02,7.23 81.55,22.09 l 7.37,5.34 5.22,-87.16 -2.81,-1.51 c -18.14,-9.78 -58.86,-16.6 -99,-16.6"
         style="fill:#231f20;fill-opacity:1;fill-rule:nonzero;stroke:none"
         id="path26" /><path
         d="m 2996.79,1951.46 h -91.92 v 456.69 h 91.92 v -456.69"
         style="fill:#231f20;fill-opacity:1;fill-rule:nonzero;stroke:none"
         id="path28" /><path
         d="m 3336.62,1951.46 h -251.27 v 456.69 h 244.86 v -75.28 h -152.94 v -109.02 h 144.62 v -75.29 h -144.62 v -121.82 h 159.35 v -75.28"
         style="fill:#231f20;fill-opacity:1;fill-rule:nonzero;stroke:none"
         id="path30" /><path
         d="m 3559.35,1951.46 h -91.92 v 381.41 h -99.83 v 75.28 h 290.93 v -75.28 h -99.18 v -381.41"
         style="fill:#231f20;fill-opacity:1;fill-rule:nonzero;stroke:none"
         id="path32" /><path
         d="m 3900.46,1951.46 h -91.92 v 183.02 l -134.87,273.67 h 99.48 l 83.77,-171.86 78.85,171.86 h 99.53 l -134.84,-275.58 v -181.11"
         style="fill:#231f20;fill-opacity:1;fill-rule:nonzero;stroke:none"
         id="path34" /><path
         d="M 39.9688,1751.02 H 247.953 v -48.63 H 96.2852 V 1560.32 H 240.914 v -48.64 H 96.2852 V 1352.97 H 256.273 v -48.63 H 39.9688 v 446.68"
         style="fill:#231f20;fill-opacity:1;fill-rule:nonzero;stroke:none"
         id="path36" /><path
         d="m 643.215,1468.8 c 0,-44.15 -2.563,-68.47 -17.922,-99.83 -18.555,-37.12 -57.594,-69.11 -122.227,-69.11 -64.636,0 -103.675,31.99 -122.23,69.11 -15.363,31.36 -17.922,55.68 -17.922,99.83 v 282.22 h 56.313 v -290.54 c 0,-69.75 30.718,-114.55 83.839,-114.55 53.114,0 83.832,44.8 83.832,114.55 v 290.54 h 56.317 V 1468.8"
         style="fill:#231f20;fill-opacity:1;fill-rule:nonzero;stroke:none"
         id="path38" /><path
         d="m 837.078,1552.64 h 43.524 c 60.152,0 83.191,39.67 83.191,78.71 0,49.92 -32.641,73.6 -81.914,73.6 h -44.801 z m -56.312,198.38 h 114.55 c 47.36,0 73.594,-11.51 94.075,-30.71 23.039,-21.76 33.279,-52.49 33.279,-85.12 0,-47.35 -22.4,-92.79 -88.315,-106.87 v -1.28 c 26.875,-5.12 39.676,-17.92 48.637,-43.52 l 62.718,-179.18 h -60.8 l -51.195,151.02 c -12.797,37.12 -28.797,51.2 -71.035,51.2 h -25.602 v -202.22 h -56.312 v 446.68"
         style="fill:#231f20;fill-opacity:1;fill-rule:nonzero;stroke:none"
         id="path40" /><path
         d="m 1290.45,1345.93 c 58.88,0 108.79,48.64 108.79,186.23 0,90.23 -28.16,177.27 -103.67,177.27 -58.88,0 -108.79,-48.64 -108.79,-186.23 0,-90.23 28.15,-177.27 103.67,-177.27 z m 5.12,409.57 c 99.19,0 162.55,-85.11 162.55,-223.34 0,-154.23 -62.08,-232.3 -167.67,-232.3 -99.2,0 -162.55,85.11 -162.55,223.34 0,154.23 62.08,232.3 167.67,232.3"
         style="fill:#231f20;fill-opacity:1;fill-rule:nonzero;stroke:none"
         id="path42" /><path
         d="m 1635.48,1537.28 h 30.72 c 68.47,0 93.43,32 93.43,81.92 0,61.43 -34.56,85.75 -92.15,85.75 h -32 z m -56.32,213.74 h 107.51 c 44.8,0 72.96,-12.16 96.64,-34.56 22.4,-21.75 35.2,-53.11 35.2,-92.15 0,-87.03 -50.56,-133.11 -145.27,-133.11 h -37.76 v -186.86 h -56.32 v 446.68"
         style="fill:#231f20;fill-opacity:1;fill-rule:nonzero;stroke:none"
         id="path44" /><path
         d="m 1924.76,1751.02 h 207.98 v -48.63 h -151.67 v -142.07 h 144.63 v -48.64 h -144.63 v -158.71 h 159.99 v -48.63 h -216.3 v 446.68"
         style="fill:#231f20;fill-opacity:1;fill-rule:nonzero;stroke:none"
         id="path46" /><path
         d="m 2479.75,1469.44 -68.48,222.71 h -1.28 l -70.4,-222.71 z m -36.48,281.58 145.91,-446.68 h -58.88 l -35.84,116.46 h -170.22 l -35.84,-116.46 h -56.32 l 149.75,446.68 h 61.44"
         style="fill:#231f20;fill-opacity:1;fill-rule:nonzero;stroke:none"
         id="path48" /><path
         d="m 2689.36,1751.02 h 69.75 l 168.31,-368.61 h 1.28 v 368.61 h 53.75 v -446.68 h -69.75 l -168.31,366.05 h -1.28 v -366.05 h -53.75 v 446.68"
         style="fill:#231f20;fill-opacity:1;fill-rule:nonzero;stroke:none"
         id="path50" /><path
         d="m 3395.91,1537.28 h 30.71 c 68.48,0 93.44,32 93.44,81.92 0,61.43 -34.56,85.75 -92.16,85.75 h -31.99 z m -56.32,213.74 h 107.51 c 44.79,0 72.96,-12.16 96.63,-34.56 22.4,-21.75 35.21,-53.11 35.21,-92.15 0,-87.03 -50.56,-133.11 -145.28,-133.11 h -37.75 v -186.86 h -56.32 v 446.68"
         style="fill:#231f20;fill-opacity:1;fill-rule:nonzero;stroke:none"
         id="path52" /><path
         d="m 3836.14,1345.93 c 58.88,0 108.8,48.64 108.8,186.23 0,90.23 -28.16,177.27 -103.67,177.27 -58.88,0 -108.8,-48.64 -108.8,-186.23 0,-90.23 28.16,-177.27 103.67,-177.27 z m 5.13,409.57 c 99.19,0 162.55,-85.11 162.55,-223.34 0,-154.23 -62.08,-232.3 -167.68,-232.3 -99.19,0 -162.55,85.11 -162.55,223.34 0,154.23 62.08,232.3 167.68,232.3"
         style="fill:#231f20;fill-opacity:1;fill-rule:nonzero;stroke:none"
         id="path54" /><path
         d="m 4124.86,1751.02 h 56.32 v -398.05 h 146.54 v -48.63 h -202.86 v 446.68"
         style="fill:#231f20;fill-opacity:1;fill-rule:nonzero;stroke:none"
         id="path56" /><path
         d="m 4428.67,1751.02 h 56.32 v -446.68 h -56.32 v 446.68"
         style="fill:#231f20;fill-opacity:1;fill-rule:nonzero;stroke:none"
         id="path58" /><path
         d="m 4884.78,1313.3 c -26.89,-8.33 -55.04,-13.44 -81.28,-13.44 -141.43,0 -200.94,107.51 -200.94,228.46 0,139.5 81.27,227.18 197.74,227.18 31.99,0 64,-5.76 84.48,-15.99 v -55.04 c -24.32,15.36 -52.49,22.39 -83.84,22.39 -72.95,0 -139.51,-58.23 -139.51,-167.02 0,-115.19 46.08,-191.35 143.35,-191.35 28.79,0 56.96,7.68 80,21.12 v -56.31"
         style="fill:#231f20;fill-opacity:1;fill-rule:nonzero;stroke:none"
         id="path60" /><path
         d="m 5108.96,1491.84 -133.75,259.18 h 64 l 98.55,-197.74 99.19,197.74 h 62.08 l -133.75,-259.18 v -187.5 h -56.32 v 187.5"
         style="fill:#231f20;fill-opacity:1;fill-rule:nonzero;stroke:none"
         id="path62" /><path
         d="M 39.9688,1101.02 H 96.2852 V 654.34 H 39.9688 v 446.68"
         style="fill:#231f20;fill-opacity:1;fill-rule:nonzero;stroke:none"
         id="path64" /><path
         d="m 233.816,1101.02 h 69.758 L 471.879,732.41 h 1.281 v 368.61 h 53.754 V 654.34 h -69.75 l -168.312,366.05 h -1.278 V 654.34 h -53.758 v 446.68"
         style="fill:#231f20;fill-opacity:1;fill-rule:nonzero;stroke:none"
         id="path66" /><path
         d="m 850.703,1036.39 c -21.117,12.8 -48.637,20.47 -76.156,20.47 -42.238,0 -69.75,-28.79 -69.75,-66.551 0,-28.797 11.516,-46.719 75.512,-83.829 69.117,-39.679 92.152,-78.718 92.152,-129.91 0,-71.039 -44.156,-126.711 -129.91,-126.711 -35.836,0 -69.758,7.672 -93.434,19.192 v 58.238 c 25.602,-15.359 58.875,-28.801 85.11,-28.801 50.558,0 79.359,33.922 79.359,70.403 0,34.558 -8.961,54.398 -69.117,90.871 -80.629,48.636 -98.551,76.148 -98.551,133.75 0,73.588 56.312,111.988 124.148,111.988 29.442,0 60.797,-6.4 80.637,-14.71 v -54.4"
         style="fill:#231f20;fill-opacity:1;fill-rule:nonzero;stroke:none"
         id="path68" /><path
         d="M 1056.07,1052.39 H 953.68 v 48.63 h 261.11 v -48.63 h -102.4 V 654.34 h -56.32 v 398.05"
         style="fill:#231f20;fill-opacity:1;fill-rule:nonzero;stroke:none"
         id="path70" /><path
         d="m 1317.51,1101.02 h 56.31 V 654.34 h -56.31 v 446.68"
         style="fill:#231f20;fill-opacity:1;fill-rule:nonzero;stroke:none"
         id="path72" /><path
         d="m 1578.24,1052.39 h -102.4 v 48.63 h 261.11 v -48.63 H 1634.56 V 654.34 h -56.32 v 398.05"
         style="fill:#231f20;fill-opacity:1;fill-rule:nonzero;stroke:none"
         id="path74" /><path
         d="m 2120.03,818.801 c 0,-44.153 -2.55,-68.469 -17.92,-99.832 -18.55,-37.117 -57.59,-69.11 -122.23,-69.11 -64.63,0 -103.67,31.993 -122.22,69.11 -15.37,31.363 -17.92,55.679 -17.92,99.832 v 282.219 h 56.31 V 810.48 c 0,-69.75 30.72,-114.55 83.83,-114.55 53.12,0 83.84,44.8 83.84,114.55 v 290.54 h 56.31 V 818.801"
         style="fill:#231f20;fill-opacity:1;fill-rule:nonzero;stroke:none"
         id="path76" /><path
         d="m 2325.23,1052.39 h -102.39 v 48.63 h 261.1 v -48.63 H 2381.55 V 654.34 h -56.32 v 398.05"
         style="fill:#231f20;fill-opacity:1;fill-rule:nonzero;stroke:none"
         id="path78" /><path
         d="m 2586.73,1101.02 h 207.99 v -48.63 H 2643.05 V 910.32 h 144.63 V 861.68 H 2643.05 V 702.969 h 159.98 V 654.34 h -216.3 v 446.68"
         style="fill:#231f20;fill-opacity:1;fill-rule:nonzero;stroke:none"
         id="path80" /></g></g></svg>
